<svg xmlns="http://www.w3.org/2000/svg" xmlns:xlink="http://www.w3.org/1999/xlink" viewBox="0 0 349.58 335.82"><defs><style>.cls-1,.cls-10,.cls-11,.cls-12,.cls-13,.cls-2,.cls-3,.cls-4,.cls-5,.cls-6,.cls-7,.cls-8,.cls-9{stroke:#edf5e0;stroke-miterlimit:10;stroke-width:4px;}.cls-1{fill:url(#Dégradé_sans_nom_97);}.cls-2{fill:url(#Dégradé_sans_nom_92);}.cls-3{fill:url(#Dégradé_sans_nom_96);}.cls-4{fill:none;}.cls-5{fill:url(#Dégradé_sans_nom_99);}.cls-6{fill:url(#Dégradé_sans_nom_9);}.cls-7{fill:url(#Dégradé_sans_nom_2);}.cls-8{fill:url(#Dégradé_sans_nom_47);}.cls-9{fill:#2f5284;}.cls-10{fill:url(#Dégradé_sans_nom_46);}.cls-11{fill:url(#Dégradé_sans_nom_29);}.cls-12{fill:url(#Dégradé_sans_nom_98);}.cls-13{fill:url(#Dégradé_sans_nom_29-2);}</style><linearGradient id="Dégradé_sans_nom_97" x1="171.78" y1="93.54" x2="419.96" y2="103.41" gradientUnits="userSpaceOnUse"><stop offset="0.01" stop-color="#183276"/><stop offset="0.24" stop-color="#284880"/><stop offset="0.39" stop-color="#2f5284"/><stop offset="0.49" stop-color="#294a80"/><stop offset="0.64" stop-color="#193376"/><stop offset="0.65" stop-color="#173175"/></linearGradient><linearGradient id="Dégradé_sans_nom_92" x1="-21.28" y1="92.42" x2="193.08" y2="92.42" gradientUnits="userSpaceOnUse"><stop offset="0.01" stop-color="#193477"/><stop offset="0.24" stop-color="#294980"/><stop offset="0.39" stop-color="#2f5284"/><stop offset="0.49" stop-color="#294a80"/><stop offset="0.64" stop-color="#193376"/><stop offset="0.65" stop-color="#173175"/></linearGradient><linearGradient id="Dégradé_sans_nom_96" x1="172.62" y1="282.33" x2="176.26" y2="1.31" gradientUnits="userSpaceOnUse"><stop offset="0.4" stop-color="#e76c25"/><stop offset="0.48" stop-color="#e87124"/><stop offset="0.57" stop-color="#ea8122"/><stop offset="0.67" stop-color="#ed9a1f"/><stop offset="0.72" stop-color="#efa81d"/></linearGradient><linearGradient id="Dégradé_sans_nom_99" x1="175.51" y1="304.25" x2="183.09" y2="-96.07" gradientUnits="userSpaceOnUse"><stop offset="0.29" stop-color="#071c6c"/><stop offset="0.31" stop-color="#0f2671"/><stop offset="0.38" stop-color="#203e7b"/><stop offset="0.44" stop-color="#2b4d82"/><stop offset="0.49" stop-color="#2f5284"/></linearGradient><linearGradient id="Dégradé_sans_nom_9" x1="175.14" y1="241.85" x2="178.93" y2="30.78" gradientUnits="userSpaceOnUse"><stop offset="0.22" stop-color="#e76a25"/><stop offset="0.22" stop-color="#e76d25"/><stop offset="0.28" stop-color="#eb8821"/><stop offset="0.35" stop-color="#ed9a1f"/><stop offset="0.41" stop-color="#efa51d"/><stop offset="0.48" stop-color="#efa91d"/></linearGradient><linearGradient id="Dégradé_sans_nom_2" x1="174.03" y1="143.75" x2="176.28" y2="-46.61" gradientUnits="userSpaceOnUse"><stop offset="0.31" stop-color="#e76a25"/><stop offset="0.43" stop-color="#ea8422"/><stop offset="0.58" stop-color="#efa81d"/></linearGradient><linearGradient id="Dégradé_sans_nom_47" x1="9.04" y1="318.99" x2="123.16" y2="206.33" gradientUnits="userSpaceOnUse"><stop offset="0" stop-color="#071c6c"/><stop offset="0.29" stop-color="#0f2771"/><stop offset="0.81" stop-color="#25457e"/><stop offset="1" stop-color="#2f5284"/></linearGradient><linearGradient id="Dégradé_sans_nom_46" x1="343.21" y1="288.32" x2="230.06" y2="214.02" gradientUnits="userSpaceOnUse"><stop offset="0" stop-color="#071c6c"/><stop offset="0.39" stop-color="#152f74"/><stop offset="0.96" stop-color="#2f5284"/></linearGradient><linearGradient id="Dégradé_sans_nom_29" x1="183.79" y1="107.64" x2="226.32" y2="107.64" gradientUnits="userSpaceOnUse"><stop offset="0" stop-color="#e76a25"/><stop offset="0.51" stop-color="#ec9120"/><stop offset="0.86" stop-color="#efa81d"/></linearGradient><linearGradient id="Dégradé_sans_nom_98" x1="206.51" y1="104.46" x2="51.01" y2="108.98" gradientUnits="userSpaceOnUse"><stop offset="0.08" stop-color="#e76a25"/><stop offset="0.54" stop-color="#ec9120"/><stop offset="0.86" stop-color="#efa81d"/></linearGradient><linearGradient id="Dégradé_sans_nom_29-2" x1="174.29" y1="145.66" x2="175.42" y2="96.1" xlink:href="#Dégradé_sans_nom_29"/></defs><title>Fichier 4</title><g id="Calque_2" data-name="Calque 2"><g id="Calque_2-2" data-name="Calque 2"><path class="cls-1" d="M346.89,133.05v.1a75.42,75.42,0,0,1-1.4,14.49A74,74,0,0,0,344,134.36h0a77.06,77.06,0,0,0-9.24-23.79c-15.63-26.4-46.6-44.4-82.27-44.4a101,101,0,0,0-46.61,11.19c-7.75,4-14.79-.94-20.92-3.21,6.43-5.14,14-8.92,22.29-13.26a101,101,0,0,1,46.61-11.19c35.67,0,66.65,18,82.27,44.4A76.21,76.21,0,0,1,346.89,133.05Z"/><path class="cls-2" d="M164.54,73.52c-6.56,1.73-14.28,8.3-22.87,3.83a100.93,100.93,0,0,0-46.6-11.19c-35.67,0-66.64,18-82.27,44.4a78.69,78.69,0,0,0-7.49,16.91h0a73.45,73.45,0,0,0-1.91,7.67c0-.67,0-1.33,0-2v-.1a76.4,76.4,0,0,1,10.8-39c15.63-26.4,46.6-44.4,82.28-44.4a101,101,0,0,1,46.6,11.19C151,65,158.29,68.69,164.54,73.52Z"/><path class="cls-3" d="M345.49,147.64c-7.65,39.18-45.78,69-91.67,69-33.12,0-62.21-15.52-78.69-38.89-16.48,23.37-45.57,38.89-78.68,38.89-50.65,0-91.86-36.28-93-81.45h0a73.45,73.45,0,0,1,1.91-7.67h0a78.69,78.69,0,0,1,7.49-16.91c15.63-26.4,46.6-44.4,82.27-44.4a100.93,100.93,0,0,1,46.6,11.19c8.59,4.47,16.31-2.1,22.87-3.83a49.6,49.6,0,0,1,10.59,10.92,49.62,49.62,0,0,1,9.79-10.3c6.13,2.27,13.17,7.25,20.92,3.21a101,101,0,0,1,46.61-11.19c35.67,0,66.64,18,82.27,44.4A77.06,77.06,0,0,1,344,134.35h0A74,74,0,0,1,345.49,147.64Z"/><path class="cls-4" d="M345.52,149.52v.1a76,76,0,0,1-.7,10.29h0a75.67,75.67,0,0,1-5.88,20.59,77.66,77.66,0,0,1-4.63,8.86c-15.76,26-46.51,43.72-81.86,43.72-26.7,0-50.77-10.08-67.74-26.23a85.75,85.75,0,0,1-11-12.65,85.5,85.5,0,0,1-9.7,11.43c-17,16.86-41.63,27.45-69,27.45-34.34,0-64.36-16.69-80.48-41.53a78.24,78.24,0,0,1-6-11.05,76.47,76.47,0,0,1-3.73-10.29.19.19,0,0,0,0-.07h0A75.63,75.63,0,0,1,2.7,159.91h0A76,76,0,0,1,2,149.62v-.1a75.55,75.55,0,0,1,.71-10.26v0c.2-1.37.42-2.72.69-4.07h0a73.45,73.45,0,0,1,1.91-7.67h0a78.69,78.69,0,0,1,7.49-16.91c15.63-26.4,46.6-44.4,82.27-44.4a100.93,100.93,0,0,1,46.6,11.19c8.59,4.47,16.31-2.1,22.87-3.83,3.39-.9,6.48-.51,9.22,3.37,3.25-4.61,7-4.3,11.16-2.75,6.13,2.27,13.17,7.25,20.92,3.21a101,101,0,0,1,46.61-11.19c35.67,0,66.64,18,82.27,44.4A77.06,77.06,0,0,1,344,134.35h0a74,74,0,0,1,1.53,13.28C345.51,148.27,345.52,148.89,345.52,149.52Z"/><path class="cls-4" d="M345.52,173.54v.1a76,76,0,0,1-.7,10.29h0a75.62,75.62,0,0,1-5.06,18.67,79.66,79.66,0,0,1-8.87,16c-16.54,23.17-45.49,38.53-78.44,38.53A99.71,99.71,0,0,1,196,240a87.92,87.92,0,0,1-22.13-21.63l-.11-.15-.39.53a86.79,86.79,0,0,1-18.71,19A99.27,99.27,0,0,1,95.07,257.1c-27,0-51.3-10.31-68.3-26.78h0a114.88,114.88,0,0,1-15.27-29.7,142.71,142.71,0,0,1-4.07-13.89Q5.9,180.4,4.85,173.66h0a.19.19,0,0,1,0-.08h0A75.81,75.81,0,0,1,2.7,163.35h0c.16-1.17.35-2.33.57-3.49h0a70.7,70.7,0,0,1,1.78-7.44h0a72.44,72.44,0,0,1,2.86-8.08,79.86,79.86,0,0,1,4.89-9.74c15.63-26.4,46.6-44.4,82.27-44.4a100.93,100.93,0,0,1,46.6,11.19c13,6.78,24.05,12.18,32.09,23.56,8-11.38,19.06-16.78,32.08-23.56a101,101,0,0,1,46.61-11.19c35.67,0,66.64,18,82.27,44.4a78.92,78.92,0,0,1,6.46,13.81,72.48,72.48,0,0,1,2.67,9.43h0c.4,1.81.72,3.66,1,5.51h0a75.06,75.06,0,0,1,.69,9.65v0C345.52,173.19,345.52,173.37,345.52,173.54Z"/><path class="cls-4" d="M344.82,180.5h0a75.54,75.54,0,0,1-5.06,18.68,79.66,79.66,0,0,1-8.87,16c-8.11,15-18.84,26.63-31.39,34.44-6.09,3.79-20.61,12.37-27.48,16.48-3.55,2.14-8.12,4.88-13.29,8q-3.12.19-6.28.19c-25,0-47.79-8.88-64.51-23.31a86,86,0,0,1-14.18-15.58,85.64,85.64,0,0,1-13.52,15c-16.78,14.77-39.79,23.89-65.17,23.89-1.16,0-2.32,0-3.47-.06h0c-5.19-3.2-9.77-6-13.34-8.14-6.87-4.11-21.39-12.69-27.48-16.48a85.86,85.86,0,0,1-24-22.69h0a114.88,114.88,0,0,1-15.27-29.7,143.53,143.53,0,0,1-4.07-13.89Q5.9,177,4.85,170.23h0a76.4,76.4,0,0,1,3.56-9.91h0a82.21,82.21,0,0,1,3.78-7.5c.2-.36.41-.7.61-1,15.63-26.4,46.6-44.4,82.27-44.4a100.93,100.93,0,0,1,46.6,11.19c13,6.78,24.05,12.18,32.09,23.56,8-11.38,19.06-16.78,32.08-23.56a101,101,0,0,1,46.61-11.19c35.67,0,66.64,18,82.27,44.4.74,1.26,1.45,2.53,2.12,3.82a75,75,0,0,1,3.64,8.08h0q1.25,3.22,2.19,6.56c.63,2.21,1.15,4.45,1.58,6.72h0C344.46,178.12,344.66,179.3,344.82,180.5Z"/><path class="cls-4" d="M341.72,187.72c.34,1,.65,2,.95,3.08a76.84,76.84,0,0,1-2.91,8.38,79.66,79.66,0,0,1-8.87,16c-8.11,15-18.84,26.63-31.39,34.44-6.09,3.79-20.61,12.37-27.48,16.48-3.55,2.14-8.12,4.88-13.29,8-8.8,5.31-19.38,11.72-29.77,18.09A98.11,98.11,0,0,1,210.65,286h0a90.62,90.62,0,0,1-36.88-30,90.07,90.07,0,0,1-33.39,28.34,97.81,97.81,0,0,1-20.46,7.54C110,285.59,100,279.36,91.6,274.2h0c-5.19-3.2-9.77-6-13.34-8.14-6.87-4.11-21.39-12.69-27.48-16.48a85.86,85.86,0,0,1-24-22.69h0a114.88,114.88,0,0,1-15.27-29.7,143.53,143.53,0,0,1-4.07-13.89q.55-1.41,1.17-2.79a80.86,80.86,0,0,1,4.22-8.17c.24-.41.49-.82.74-1.22a79.54,79.54,0,0,1,4.8-7c16.77-21.88,44.88-36.23,76.73-36.23a100.93,100.93,0,0,1,46.6,11.19c13,6.77,24.05,12.18,32.09,23.55,8-11.37,19.06-16.78,32.08-23.55a101,101,0,0,1,46.61-11.19c32.8,0,61.63,15.22,78.21,38.2q2.18,3,4.06,6.2c.21.36.43.72.64,1.09h0c1.31,2.3,2.51,4.66,3.58,7.07A74.16,74.16,0,0,1,341.72,187.72Z"/><path class="cls-4" d="M339.76,199.18a79.66,79.66,0,0,1-8.87,16c-8.11,15-18.84,26.63-31.39,34.44-6.09,3.79-20.61,12.37-27.48,16.48-3.55,2.14-8.12,4.88-13.29,8-8.8,5.31-19.38,11.72-29.77,18.09-6.91,4.24-13.74,8.45-19.91,12.31-1.44-.71-2.87-1.45-4.26-2.23h0a89.38,89.38,0,0,1-29.65-26.38,89.42,89.42,0,0,1-29.66,26.38c-1.66.92-3.34,1.8-5.07,2.63-6.38-4.1-13.41-8.57-20.49-13C110,285.59,100,279.36,91.6,274.2h0c-5.19-3.2-9.77-6-13.34-8.14-6.87-4.11-21.39-12.69-27.48-16.48a85.86,85.86,0,0,1-24-22.69h0a114.88,114.88,0,0,1-15.27-29.7c.83-1.68,1.74-3.33,2.69-5l.42-.68a84.87,84.87,0,0,1,12.59-16c17-17,41.75-27.73,69.27-27.73A101,101,0,0,1,143.05,159c12.07,6.28,22.42,11.38,30.27,21.16.62.77,1.23,1.57,1.81,2.4.58-.83,1.19-1.63,1.81-2.4,7.85-9.78,18.2-14.88,30.27-21.16a101,101,0,0,1,46.61-11.19c27.52,0,52.25,10.71,69.29,27.74a87.6,87.6,0,0,1,6,6.65,83.29,83.29,0,0,1,5.2,7.14c.62.95,1.21,1.9,1.78,2.87q1.44,2.43,2.7,4.94C339.12,197.84,339.44,198.5,339.76,199.18Z"/><path class="cls-5" d="M313.58,171.28c0,52-60.68,94.19-135.55,94.19S42.48,223.3,42.48,171.28c0-39.28,34.61-72.94,83.79-87.06,11.52,9.87,30,16.26,50.74,16.26,21.1,0,39.77-6.58,51.24-16.7C278.26,97.65,313.58,131.6,313.58,171.28Z"/><polygon class="cls-6" points="162.96 126.01 138.92 229.06 211.82 229.06 186.52 125.86 162.96 126.01"/><circle class="cls-7" cx="175.18" cy="46.49" r="44.49"/><path class="cls-8" d="M211.5,319.64c-.7,3.51-3.89,4.85-7.23,4.62a9.32,9.32,0,0,1,.36,3.62c-1.37,11-12.36,4.13-16.48,0a68,68,0,0,0-5.59-4.33c-1.25,5.25-11.37,3.15-15.84-.66a4.35,4.35,0,0,1-.55-.5c-1.77-1.77-11-8-23-15.75l-2.74-1.77c-6.38-4.1-13.41-8.57-20.49-13C110,285.59,100,279.36,91.6,274.2h0c-5.19-3.2-9.77-6-13.34-8.14-6.87-4.11-21.39-12.69-27.48-16.48a85.86,85.86,0,0,1-24-22.69h0a114.88,114.88,0,0,1-15.27-29.7,143.53,143.53,0,0,1-4.07-13.89Q5.9,177,4.85,170.23h0a.19.19,0,0,1,0-.08h0c-.68-4.43-1.21-9-1.56-13.71h0c-.39-5-.58-10.1-.58-15.36,0-.6,0-1.2,0-1.79v0c.08-3.46.39-7,.79-10.45v-.1h0v0s0,0,0,0c.39-3.44.86-6.81,1.28-10v0a1.36,1.36,0,0,0,0-.2v.08a84.28,84.28,0,0,0,.5,9h0a85.22,85.22,0,0,0,13,36.68,82,82,0,0,0,7.91,10.37c.31.35.61.69.93,1,14.3,15.38,34.29,24.77,56.56,23.19a162.78,162.78,0,0,0,28.85-5.5c11.69-3.34,21.31-3.13,31.6,0a24.53,24.53,0,0,1,5.49,2.75c1.2.75,2.66,1.69,4.29,2.76,2.91,1.92,6.39,4.28,10.09,6.87s7.56,5.37,11.29,8.17C185,221,193.64,228.28,195,231.72a15.87,15.87,0,0,1,1,4.85c.32,6.15-2.2,13.49-8.06,14.38a8.64,8.64,0,0,1-2.54,0c-.34,0-.7-.12-1.07-.2h0c11.86,12.84,23.17,27.45,26.31,35.22h0a10,10,0,0,1,.85,3.45c0,6.42-3.67,11-7.34,11.69.21.37.42.75.62,1.13h0c.68,1.23,1.34,2.46,2,3.68C209.79,311.76,212,317.15,211.5,319.64Z"/><path class="cls-9" d="M138.69,293.54c22,11,45.34,30.22,49.46,34.35s15.11,11,16.48,0-24.72-34.35-24.72-34.35"/><path class="cls-9" d="M146.93,283.92s46.71,30.23,49.46,35.72,13.74,6.87,15.11,0-17.86-35.72-17.86-35.72"/><path class="cls-9" d="M166.17,274.31s28.85,19.23,33,24.73,12.36,0,12.36-9.62S177.16,240,160.67,229"/><path class="cls-9" d="M155.18,231.72c2.25.91,2.79,3.13,6.52,5.77C168.11,242,175.84,247.74,182,250a18.35,18.35,0,0,0,2.35.73c.37.08.73.15,1.07.2,9.62,1.38,12.37-12.36,9.62-19.23S160.67,202.87,149.68,196a23,23,0,0,0-5.44-2.45"/><path class="cls-10" d="M347.58,141.05a190.23,190.23,0,0,1-2.07,28.52h0q-.56,3.75-1.26,7.35h0q-1.1,5.55-2.53,10.78c-.89,3.24-1.86,6.4-2.93,9.45a122,122,0,0,1-7.9,18c-8.11,15-18.84,26.63-31.39,34.44-6.09,3.79-20.61,12.37-27.48,16.48-3.55,2.14-8.12,4.88-13.29,8-8.8,5.31-19.38,11.72-29.77,18.09-6.91,4.24-13.74,8.45-19.91,12.31l-2.29,1.45c-11.88,7.45-20.92,13.35-22.66,15.1-4.12,4.12-15.09,6.63-16.39,1.15l-1,.72a53.58,53.58,0,0,0-4.6,3.62c-4.13,4.13-15.11,11-16.49,0a9.51,9.51,0,0,1,.37-3.62c-3.34.23-6.54.26-7.24-3.25-.47-2.39,1.54-7.44,4.38-13,.73-1.45,1.52-2.93,2.33-4.4l.63-1.13c-3.66-.71-7.34-5.27-7.34-11.69a13.21,13.21,0,0,1,1.61-5.12c3.93-8.07,14.51-21.58,25.57-33.55h0c-.37.08-.72.15-1.07.2a8.18,8.18,0,0,1-4.62-.58c-5.2-2.36-6.89-10.39-5.58-16.06a13.19,13.19,0,0,1,.59-1.9c1.3-3.27,9.11-10.09,18.12-17.09l.5-.39,1.48-1.13c3.09-2.37,6.28-4.73,9.36-7,4.26-3.07,8.3-5.87,11.6-8.08,1.63-1.08,3.07-2,4.27-2.77a24.39,24.39,0,0,1,5.5-2.75c10.29-3.13,19.9-3.34,31.6,0a162.69,162.69,0,0,0,28.84,5.5c22.27,1.58,42.28-7.8,56.59-23.18l.94-1a81.68,81.68,0,0,0,6.61-8.4A84.26,84.26,0,0,0,341.18,145,80.37,80.37,0,0,0,344,134.36h0a81.42,81.42,0,0,0,1.55-15.58h0c0-.13,0-.26,0-.38.06.41.1.82.15,1.24a0,0,0,0,1,0,0v.08c.35,2.64.7,5.4,1,8.2v0A117.68,117.68,0,0,1,347.58,141.05Z"/><path class="cls-9" d="M210.2,293.54c-22,11-45.33,30.22-49.46,34.35s-14.93,9.49-15.11,0c-.21-11.08,24.73-34.35,24.73-34.35"/><path class="cls-9" d="M198.53,283.24s-45.18,33.83-50,37.66c-6.87,5.49-11.67.69-10.48-6.75,1.1-6.92,18.54-30.23,18.54-30.23"/><path class="cls-9" d="M180.1,276.31S153.32,297.22,147.58,301c-7.55,5-15,0-12.82-9.58C136.9,282,169.11,242,185.59,231"/><path class="cls-9" d="M197.84,231.72c-2.26.91-5.54,3.13-9.28,5.77-6.4,4.52-14.13,10.25-20.27,12.53a18.86,18.86,0,0,1-2.35.73c-.37.08-.73.15-1.08.2-9.61,1.38-12.36-12.36-9.61-19.23s34.34-28.85,45.33-35.72a23.19,23.19,0,0,1,5.44-2.45"/><path class="cls-11" d="M183.79,102.29l31.36,24.63,11.17-38.55S204.23,100,183.79,102.29Z"/><path class="cls-12" d="M167.26,102.44l-35.23,24L127.53,87S146.51,100,167.26,102.44Z"/><path class="cls-13" d="M162.4,106.14c-1.11.58-8.71,11.17-5.48,18,4.74,10,18.49,14.21,18.49,14.21s12.75-4.47,17.06-14.21c3.3-7.46-1.07-16.55-3.23-17.53a143.05,143.05,0,0,0-14-4.87S163.38,105.63,162.4,106.14Z"/></g></g></svg>